G04 (created by PCBNEW (2013-07-07 BZR 4022)-stable) date 28/05/2014 3:44:16 AM*
%MOIN*%
G04 Gerber Fmt 3.4, Leading zero omitted, Abs format*
%FSLAX34Y34*%
G01*
G70*
G90*
G04 APERTURE LIST*
%ADD10C,0.00590551*%
%ADD11R,0.06X0.08*%
%ADD12R,0.08X0.06*%
%ADD13R,0.0709X0.0629*%
%ADD14R,0.02X0.045*%
G04 APERTURE END LIST*
G54D10*
G54D11*
X33964Y-25010D03*
X32664Y-25010D03*
X32714Y-18130D03*
X34014Y-18130D03*
G54D12*
X29450Y-17590D03*
X29450Y-18890D03*
G54D13*
X33722Y-10915D03*
X33722Y-12033D03*
G54D12*
X36126Y-13290D03*
X36126Y-11990D03*
G54D11*
X34014Y-19160D03*
X32714Y-19160D03*
G54D14*
X33096Y-30920D03*
X33596Y-30920D03*
X34096Y-30920D03*
X34596Y-30920D03*
X35096Y-30920D03*
X35596Y-30920D03*
X36096Y-30920D03*
X36096Y-28820D03*
X35596Y-28820D03*
X35096Y-28820D03*
X34596Y-28820D03*
X34096Y-28820D03*
X33596Y-28820D03*
X33096Y-28820D03*
G54D12*
X30600Y-13950D03*
X30600Y-15250D03*
X27210Y-17590D03*
X27210Y-18890D03*
G54D11*
X34060Y-27736D03*
X32760Y-27736D03*
G54D12*
X28340Y-18890D03*
X28340Y-17590D03*
G54D13*
X31260Y-10911D03*
X31260Y-12029D03*
X32500Y-10901D03*
X32500Y-12019D03*
G54D11*
X38970Y-13280D03*
X37670Y-13280D03*
G54D12*
X35144Y-22020D03*
X35144Y-23320D03*
M02*
