M48
INCH,TZ
T1C0.025
T2C0.030
T3C0.032
T4C0.039
T5C0.040
T6C0.060
T7C0.073
T8C0.100
T9C0.118
T10C0.120
%
G90
G05
T1
X28850Y-18000
X34550Y-15000
X34550Y-18000
X38040Y-13500
X39330Y-11720
X42300Y-10650
X42550Y-13950
X45375Y-12675
X45750Y-13000
X45800Y-15800
T2
X36430Y-11660
X38430Y-11660
T3
X21950Y-11600
X21950Y-12600
X22950Y-11600
X22950Y-12600
X23950Y-11600
X23950Y-12600
X24950Y-11600
X24950Y-12600
X25950Y-11600
X25950Y-12600
X32050Y-14500
X32050Y-17500
X33050Y-14500
X33050Y-17500
X34050Y-14500
X34050Y-17500
X35050Y-14500
X35050Y-17500
X36050Y-14500
X36050Y-17500
X37050Y-14500
X37050Y-17500
X38050Y-14500
X38050Y-17500
X39050Y-14500
X39050Y-17500
X40050Y-14500
X40050Y-17500
X41050Y-14500
X41050Y-17500
X42050Y-14500
X42050Y-17500
X43050Y-14500
X43050Y-17500
X44050Y-14500
X44050Y-17500
X45050Y-14500
X45050Y-17500
T4
X27919Y-13614
X27919Y-15386
X30281Y-13614
X30281Y-15386
T5
X9000Y-19500
X9000Y-20500
X9000Y-21500
X9000Y-22500
X9000Y-23500
X9000Y-24500
X9000Y-25500
X9000Y-26500
X9000Y-27500
X9000Y-28500
X10000Y-19500
X10000Y-20500
X10000Y-21500
X10000Y-22500
X10000Y-23500
X10000Y-24500
X10000Y-25500
X10000Y-26500
X10000Y-27500
X10000Y-28500
X11000Y-19500
X11000Y-20500
X11000Y-21500
X11000Y-22500
X11000Y-23500
X11000Y-24500
X11000Y-25500
X11000Y-26500
X11000Y-27500
X11000Y-28500
X12000Y-19500
X12000Y-20500
X12000Y-21500
X12000Y-22500
X12000Y-23500
X12000Y-24500
X12000Y-25500
X12000Y-26500
X12000Y-27500
X12000Y-28500
X13000Y-19500
X13000Y-20500
X13000Y-21500
X13000Y-22500
X13000Y-23500
X13000Y-24500
X13000Y-25500
X13000Y-26500
X13000Y-27500
X13000Y-28500
X14000Y-19500
X14000Y-20500
X14000Y-21500
X14000Y-22500
X14000Y-23500
X14000Y-24500
X14000Y-25500
X14000Y-26500
X14000Y-27500
X14000Y-28500
X15000Y-19500
X15000Y-20500
X15000Y-21500
X15000Y-22500
X15000Y-23500
X15000Y-24500
X15000Y-25500
X15000Y-26500
X15000Y-27500
X15000Y-28500
X16000Y-19500
X16000Y-20500
X16000Y-21500
X16000Y-22500
X16000Y-23500
X16000Y-24500
X16000Y-25500
X16000Y-26500
X16000Y-27500
X16000Y-28500
X17000Y-19500
X17000Y-20500
X17000Y-21500
X17000Y-22500
X17000Y-23500
X17000Y-24500
X17000Y-25500
X17000Y-26500
X17000Y-27500
X17000Y-28500
X18000Y-19500
X18000Y-20500
X18000Y-21500
X18000Y-22500
X18000Y-23500
X18000Y-24500
X18000Y-25500
X18000Y-26500
X18000Y-27500
X18000Y-28500
X19000Y-19500
X19000Y-20500
X19000Y-21500
X19000Y-22500
X19000Y-23500
X19000Y-24500
X19000Y-25500
X19000Y-26500
X19000Y-27500
X19000Y-28500
X20000Y-19500
X20000Y-20500
X20000Y-21500
X20000Y-22500
X20000Y-23500
X20000Y-24500
X20000Y-25500
X20000Y-26500
X20000Y-27500
X20000Y-28500
X20950Y-14125
X21000Y-19500
X21000Y-20500
X21000Y-21500
X21000Y-22500
X21000Y-23500
X21000Y-24500
X21000Y-25500
X21000Y-26500
X21000Y-27500
X21000Y-28500
X21950Y-14125
X22000Y-19500
X22000Y-20500
X22000Y-21500
X22000Y-22500
X22000Y-23500
X22000Y-24500
X22000Y-25500
X22000Y-26500
X22000Y-27500
X22000Y-28500
X22950Y-14125
X23000Y-19500
X23000Y-20500
X23000Y-21500
X23000Y-22500
X23000Y-23500
X23000Y-24500
X23000Y-25500
X23000Y-26500
X23000Y-27500
X23000Y-28500
X23950Y-14125
X24000Y-19500
X24000Y-20500
X24000Y-21500
X24000Y-22500
X24000Y-23500
X24000Y-24500
X24000Y-25500
X24000Y-26500
X24000Y-27500
X24000Y-28500
X24950Y-14125
X25000Y-19500
X25000Y-20500
X25000Y-21500
X25000Y-22500
X25000Y-23500
X25000Y-24500
X25000Y-25500
X25000Y-26500
X25000Y-27500
X25000Y-28500
X25950Y-14125
X26000Y-19500
X26000Y-20500
X26000Y-21500
X26000Y-22500
X26000Y-23500
X26000Y-24500
X26000Y-25500
X26000Y-26500
X26000Y-27500
X26000Y-28500
X27000Y-19500
X27000Y-20500
X27000Y-21500
X27000Y-22500
X27000Y-23500
X27000Y-24500
X27000Y-25500
X27000Y-26500
X27000Y-27500
X27000Y-28500
X28000Y-19500
X28000Y-20500
X28000Y-21500
X28000Y-22500
X28000Y-23500
X28000Y-24500
X28000Y-25500
X28000Y-26500
X28000Y-27500
X28000Y-28500
X29000Y-19500
X29000Y-20500
X29000Y-21500
X29000Y-22500
X29000Y-23500
X29000Y-24500
X29000Y-25500
X29000Y-26500
X29000Y-27500
X29000Y-28500
X30000Y-19500
X30000Y-20500
X30000Y-21500
X30000Y-22500
X30000Y-23500
X30000Y-24500
X30000Y-25500
X30000Y-26500
X30000Y-27500
X30000Y-28500
X31000Y-19500
X31000Y-20500
X31000Y-21500
X31000Y-22500
X31000Y-23500
X31000Y-24500
X31000Y-25500
X31000Y-26500
X31000Y-27500
X31000Y-28500
X31200Y-11200
X31200Y-12200
X32000Y-19500
X32000Y-20500
X32000Y-21500
X32000Y-22500
X32000Y-23500
X32000Y-24500
X32000Y-25500
X32000Y-26500
X32000Y-27500
X32000Y-28500
X32050Y-13500
X32050Y-18500
X32200Y-11200
X32200Y-12200
X33000Y-19500
X33000Y-20500
X33000Y-21500
X33000Y-22500
X33000Y-23500
X33000Y-24500
X33000Y-25500
X33000Y-26500
X33000Y-27500
X33000Y-28500
X33050Y-13500
X33050Y-18500
X33200Y-11200
X33200Y-12200
X34000Y-19500
X34000Y-20500
X34000Y-21500
X34000Y-22500
X34000Y-23500
X34000Y-24500
X34000Y-25500
X34000Y-26500
X34000Y-27500
X34000Y-28500
X34050Y-13500
X34050Y-18500
X35000Y-19500
X35000Y-20500
X35000Y-21500
X35000Y-22500
X35000Y-23500
X35000Y-24500
X35000Y-25500
X35000Y-26500
X35000Y-27500
X35000Y-28500
X35050Y-13500
X35050Y-18500
X36000Y-19500
X36000Y-20500
X36000Y-21500
X36000Y-22500
X36000Y-23500
X36000Y-24500
X36000Y-25500
X36000Y-26500
X36000Y-27500
X36000Y-28500
X36050Y-18500
X37000Y-19500
X37000Y-20500
X37000Y-21500
X37000Y-22500
X37000Y-23500
X37000Y-24500
X37000Y-25500
X37000Y-26500
X37000Y-27500
X37000Y-28500
X37050Y-18500
X38000Y-19500
X38000Y-20500
X38000Y-21500
X38000Y-22500
X38000Y-23500
X38000Y-24500
X38000Y-25500
X38000Y-26500
X38000Y-27500
X38000Y-28500
X38050Y-18500
X39000Y-19500
X39000Y-20500
X39000Y-21500
X39000Y-22500
X39000Y-23500
X39000Y-24500
X39000Y-25500
X39000Y-26500
X39000Y-27500
X39000Y-28500
X39050Y-13500
X39050Y-18500
X40000Y-19500
X40000Y-20500
X40000Y-21500
X40000Y-22500
X40000Y-23500
X40000Y-24500
X40000Y-25500
X40000Y-26500
X40000Y-27500
X40000Y-28500
X40050Y-13500
X40050Y-18500
X41000Y-19500
X41000Y-20500
X41000Y-21500
X41000Y-22500
X41000Y-23500
X41000Y-24500
X41000Y-25500
X41000Y-26500
X41000Y-27500
X41000Y-28500
X41050Y-13500
X41050Y-18500
X42000Y-19500
X42000Y-20500
X42000Y-21500
X42000Y-22500
X42000Y-23500
X42000Y-24500
X42000Y-25500
X42000Y-26500
X42000Y-27500
X42000Y-28500
X42050Y-13500
X42050Y-18500
X43000Y-19500
X43000Y-20500
X43000Y-21500
X43000Y-22500
X43000Y-23500
X43000Y-24500
X43000Y-25500
X43000Y-26500
X43000Y-27500
X43000Y-28500
X43025Y-12375
X43050Y-13500
X43050Y-18500
X43220Y-10980
X44000Y-19500
X44000Y-20500
X44000Y-21500
X44000Y-22500
X44000Y-23500
X44000Y-24500
X44000Y-25500
X44000Y-26500
X44000Y-27500
X44000Y-28500
X44025Y-12375
X44050Y-13500
X44050Y-18500
X44220Y-10980
X45000Y-19500
X45000Y-20500
X45000Y-21500
X45000Y-22500
X45000Y-23500
X45000Y-24500
X45000Y-25500
X45000Y-26500
X45000Y-27500
X45000Y-28500
X45050Y-13500
X45050Y-18500
X45220Y-10980
X46000Y-19500
X46000Y-20500
X46000Y-21500
X46000Y-22500
X46000Y-23500
X46000Y-24500
X46000Y-25500
X46000Y-26500
X46000Y-27500
X46000Y-28500
X46050Y-13500
X46050Y-18500
X46220Y-10980
X47000Y-19500
X47000Y-20500
X47000Y-21500
X47000Y-22500
X47000Y-23500
X47000Y-24500
X47000Y-25500
X47000Y-26500
X47000Y-27500
X47000Y-28500
X47050Y-13500
X47050Y-18500
X47220Y-10980
X48000Y-19500
X48000Y-20500
X48000Y-21500
X48000Y-22500
X48000Y-23500
X48000Y-24500
X48000Y-25500
X48000Y-26500
X48000Y-27500
X48000Y-28500
X48220Y-10980
T6
X19000Y-16800
X21000Y-16800
X23000Y-16800
X25000Y-16800
T7
X11670Y-14518
X11670Y-16682
X13324Y-14518
X13324Y-16682
X14976Y-14518
X14976Y-16682
X16630Y-14518
X16630Y-16682
T8
X19650Y-11900
X28250Y-11900
T9
X11670Y-11643
X16630Y-11643
T10
X9500Y-15500
X47500Y-15500
T0
M30
