G04 (created by PCBNEW (2013-07-07 BZR 4022)-stable) date 08/05/2014 10:59:01 AM*
%MOIN*%
G04 Gerber Fmt 3.4, Leading zero omitted, Abs format*
%FSLAX34Y34*%
G01*
G70*
G90*
G04 APERTURE LIST*
%ADD10C,0.00590551*%
%ADD11C,0.175748*%
%ADD12C,0.133858*%
%ADD13R,0.115748X0.115748*%
%ADD14C,0.135748*%
%ADD15R,0.075748X0.075748*%
%ADD16C,0.075748*%
%ADD17R,0.075748X0.095748*%
%ADD18C,0.070748*%
%ADD19R,0.070748X0.070748*%
%ADD20R,0.095748X0.075748*%
%ADD21R,0.086648X0.078648*%
%ADD22C,0.071748*%
%ADD23R,0.035748X0.060748*%
%ADD24C,0.165748*%
%ADD25R,0.165748X0.165748*%
G04 APERTURE END LIST*
G54D10*
G54D11*
X32750Y-15750D03*
X8250Y-15750D03*
G54D12*
X16630Y-11643D03*
G54D13*
X16630Y-16682D03*
X14976Y-16682D03*
X13324Y-16682D03*
X11670Y-16682D03*
X16630Y-14518D03*
X14976Y-14518D03*
X13324Y-14518D03*
X11670Y-14518D03*
G54D12*
X11670Y-11643D03*
G54D14*
X28250Y-11900D03*
X19650Y-11900D03*
G54D15*
X21950Y-12600D03*
G54D16*
X21950Y-11600D03*
X22950Y-12600D03*
X22950Y-11600D03*
X23950Y-12600D03*
X23950Y-11600D03*
X24950Y-12600D03*
X24950Y-11600D03*
X25950Y-12600D03*
X25950Y-11600D03*
G54D17*
X33964Y-25010D03*
X32664Y-25010D03*
G54D18*
X27054Y-13579D03*
X28826Y-13579D03*
X27054Y-15941D03*
X28826Y-15941D03*
G54D15*
X35050Y-10892D03*
G54D16*
X36050Y-10892D03*
X37050Y-10892D03*
X38050Y-10892D03*
X39050Y-10892D03*
X40050Y-10892D03*
G54D18*
X36094Y-15470D03*
X36094Y-16470D03*
X36094Y-17470D03*
X36094Y-18470D03*
X36094Y-19470D03*
X36094Y-20470D03*
X36094Y-21470D03*
X36094Y-22470D03*
X36094Y-23470D03*
X36094Y-24470D03*
X36094Y-25470D03*
X36094Y-26470D03*
X36094Y-27470D03*
G54D19*
X36094Y-14470D03*
G54D18*
X39094Y-27470D03*
X39094Y-26470D03*
X39094Y-25470D03*
X39094Y-24470D03*
X39094Y-23470D03*
X39094Y-22470D03*
X39094Y-21470D03*
X39094Y-20470D03*
X39094Y-19470D03*
X39094Y-18470D03*
X39094Y-17470D03*
X39094Y-16470D03*
X39094Y-15470D03*
X39094Y-14470D03*
G54D17*
X32714Y-18130D03*
X34014Y-18130D03*
G54D20*
X29450Y-17590D03*
X29450Y-18890D03*
G54D21*
X33722Y-10915D03*
X33722Y-12033D03*
G54D22*
X33254Y-23090D03*
X33254Y-21090D03*
G54D20*
X36126Y-13290D03*
X36126Y-11990D03*
G54D17*
X34014Y-19160D03*
X32714Y-19160D03*
G54D16*
X35094Y-12470D03*
X35094Y-13470D03*
X35094Y-14470D03*
X35094Y-15470D03*
X35094Y-16470D03*
X35094Y-17470D03*
X35094Y-18470D03*
X35094Y-19470D03*
X35094Y-20470D03*
X35094Y-24470D03*
X35094Y-25470D03*
X35094Y-26470D03*
X35094Y-27470D03*
X40094Y-27470D03*
X40094Y-26470D03*
X40094Y-25470D03*
X40094Y-24470D03*
X40094Y-23470D03*
X40094Y-22470D03*
X40094Y-21470D03*
X40094Y-20470D03*
X40094Y-19470D03*
X40094Y-18470D03*
X40094Y-17470D03*
X40094Y-16470D03*
X40094Y-15470D03*
X40094Y-14470D03*
X40094Y-13470D03*
X40094Y-12470D03*
G54D15*
X39896Y-29772D03*
G54D16*
X39896Y-30772D03*
X38896Y-29772D03*
X38896Y-30772D03*
X37896Y-29772D03*
X37896Y-30772D03*
G54D15*
X38830Y-12180D03*
G54D16*
X37830Y-12180D03*
G54D23*
X33096Y-30920D03*
X33596Y-30920D03*
X34096Y-30920D03*
X34596Y-30920D03*
X35096Y-30920D03*
X35596Y-30920D03*
X36096Y-30920D03*
X36096Y-28820D03*
X35596Y-28820D03*
X35096Y-28820D03*
X34596Y-28820D03*
X34096Y-28820D03*
X33596Y-28820D03*
X33096Y-28820D03*
G54D20*
X30600Y-13950D03*
X30600Y-15250D03*
X27210Y-17590D03*
X27210Y-18890D03*
G54D17*
X34060Y-27736D03*
X32760Y-27736D03*
G54D20*
X28340Y-18890D03*
X28340Y-17590D03*
G54D15*
X33890Y-26312D03*
G54D16*
X32890Y-26312D03*
G54D21*
X31260Y-10911D03*
X31260Y-12029D03*
X32500Y-10901D03*
X32500Y-12019D03*
G54D17*
X38970Y-13280D03*
X37670Y-13280D03*
G54D20*
X35144Y-22020D03*
X35144Y-23320D03*
G54D16*
X27250Y-29000D03*
X31250Y-29000D03*
X30250Y-29000D03*
X29250Y-29000D03*
X28250Y-29000D03*
X22250Y-29000D03*
X21250Y-29000D03*
X20250Y-29000D03*
X19250Y-29000D03*
X18250Y-29000D03*
X23250Y-29000D03*
X24250Y-29000D03*
X25250Y-29000D03*
X26250Y-29000D03*
X17250Y-29000D03*
X16250Y-29000D03*
X15250Y-29000D03*
X14250Y-29000D03*
X13250Y-29000D03*
G54D15*
X7250Y-29000D03*
G54D16*
X8250Y-29000D03*
X9250Y-29000D03*
X10250Y-29000D03*
X11250Y-29000D03*
X12250Y-29000D03*
X27250Y-28000D03*
X31250Y-28000D03*
X30250Y-28000D03*
X29250Y-28000D03*
X28250Y-28000D03*
X22250Y-28000D03*
X21250Y-28000D03*
X20250Y-28000D03*
X19250Y-28000D03*
X18250Y-28000D03*
X23250Y-28000D03*
X24250Y-28000D03*
X25250Y-28000D03*
X26250Y-28000D03*
X17250Y-28000D03*
X16250Y-28000D03*
X15250Y-28000D03*
X14250Y-28000D03*
X13250Y-28000D03*
G54D15*
X7250Y-28000D03*
G54D16*
X8250Y-28000D03*
X9250Y-28000D03*
X10250Y-28000D03*
X11250Y-28000D03*
X12250Y-28000D03*
X27250Y-27000D03*
X31250Y-27000D03*
X30250Y-27000D03*
X29250Y-27000D03*
X28250Y-27000D03*
X22250Y-27000D03*
X21250Y-27000D03*
X20250Y-27000D03*
X19250Y-27000D03*
X18250Y-27000D03*
X23250Y-27000D03*
X24250Y-27000D03*
X25250Y-27000D03*
X26250Y-27000D03*
X17250Y-27000D03*
X16250Y-27000D03*
X15250Y-27000D03*
X14250Y-27000D03*
X13250Y-27000D03*
G54D15*
X7250Y-27000D03*
G54D16*
X8250Y-27000D03*
X9250Y-27000D03*
X10250Y-27000D03*
X11250Y-27000D03*
X12250Y-27000D03*
X27250Y-26000D03*
X31250Y-26000D03*
X30250Y-26000D03*
X29250Y-26000D03*
X28250Y-26000D03*
X22250Y-26000D03*
X21250Y-26000D03*
X20250Y-26000D03*
X19250Y-26000D03*
X18250Y-26000D03*
X23250Y-26000D03*
X24250Y-26000D03*
X25250Y-26000D03*
X26250Y-26000D03*
X17250Y-26000D03*
X16250Y-26000D03*
X15250Y-26000D03*
X14250Y-26000D03*
X13250Y-26000D03*
G54D15*
X7250Y-26000D03*
G54D16*
X8250Y-26000D03*
X9250Y-26000D03*
X10250Y-26000D03*
X11250Y-26000D03*
X12250Y-26000D03*
X27250Y-25000D03*
X31250Y-25000D03*
X30250Y-25000D03*
X29250Y-25000D03*
X28250Y-25000D03*
X22250Y-25000D03*
X21250Y-25000D03*
X20250Y-25000D03*
X19250Y-25000D03*
X18250Y-25000D03*
X23250Y-25000D03*
X24250Y-25000D03*
X25250Y-25000D03*
X26250Y-25000D03*
X17250Y-25000D03*
X16250Y-25000D03*
X15250Y-25000D03*
X14250Y-25000D03*
X13250Y-25000D03*
G54D15*
X7250Y-25000D03*
G54D16*
X8250Y-25000D03*
X9250Y-25000D03*
X10250Y-25000D03*
X11250Y-25000D03*
X12250Y-25000D03*
X27250Y-24000D03*
X31250Y-24000D03*
X30250Y-24000D03*
X29250Y-24000D03*
X28250Y-24000D03*
X22250Y-24000D03*
X21250Y-24000D03*
X20250Y-24000D03*
X19250Y-24000D03*
X18250Y-24000D03*
X23250Y-24000D03*
X24250Y-24000D03*
X25250Y-24000D03*
X26250Y-24000D03*
X17250Y-24000D03*
X16250Y-24000D03*
X15250Y-24000D03*
X14250Y-24000D03*
X13250Y-24000D03*
G54D15*
X7250Y-24000D03*
G54D16*
X8250Y-24000D03*
X9250Y-24000D03*
X10250Y-24000D03*
X11250Y-24000D03*
X12250Y-24000D03*
X27250Y-23000D03*
X31250Y-23000D03*
X30250Y-23000D03*
X29250Y-23000D03*
X28250Y-23000D03*
X22250Y-23000D03*
X21250Y-23000D03*
X20250Y-23000D03*
X19250Y-23000D03*
X18250Y-23000D03*
X23250Y-23000D03*
X24250Y-23000D03*
X25250Y-23000D03*
X26250Y-23000D03*
X17250Y-23000D03*
X16250Y-23000D03*
X15250Y-23000D03*
X14250Y-23000D03*
X13250Y-23000D03*
G54D15*
X7250Y-23000D03*
G54D16*
X8250Y-23000D03*
X9250Y-23000D03*
X10250Y-23000D03*
X11250Y-23000D03*
X12250Y-23000D03*
X27250Y-22000D03*
X31250Y-22000D03*
X30250Y-22000D03*
X29250Y-22000D03*
X28250Y-22000D03*
X22250Y-22000D03*
X21250Y-22000D03*
X20250Y-22000D03*
X19250Y-22000D03*
X18250Y-22000D03*
X23250Y-22000D03*
X24250Y-22000D03*
X25250Y-22000D03*
X26250Y-22000D03*
X17250Y-22000D03*
X16250Y-22000D03*
X15250Y-22000D03*
X14250Y-22000D03*
X13250Y-22000D03*
G54D15*
X7250Y-22000D03*
G54D16*
X8250Y-22000D03*
X9250Y-22000D03*
X10250Y-22000D03*
X11250Y-22000D03*
X12250Y-22000D03*
X27250Y-30000D03*
X31250Y-30000D03*
X30250Y-30000D03*
X29250Y-30000D03*
X28250Y-30000D03*
X22250Y-30000D03*
X21250Y-30000D03*
X20250Y-30000D03*
X19250Y-30000D03*
X18250Y-30000D03*
X23250Y-30000D03*
X24250Y-30000D03*
X25250Y-30000D03*
X26250Y-30000D03*
X17250Y-30000D03*
X16250Y-30000D03*
X15250Y-30000D03*
X14250Y-30000D03*
X13250Y-30000D03*
G54D15*
X7250Y-30000D03*
G54D16*
X8250Y-30000D03*
X9250Y-30000D03*
X10250Y-30000D03*
X11250Y-30000D03*
X12250Y-30000D03*
X27250Y-21000D03*
X31250Y-21000D03*
X30250Y-21000D03*
X29250Y-21000D03*
X28250Y-21000D03*
X22250Y-21000D03*
X21250Y-21000D03*
X20250Y-21000D03*
X19250Y-21000D03*
X18250Y-21000D03*
X23250Y-21000D03*
X24250Y-21000D03*
X25250Y-21000D03*
X26250Y-21000D03*
X17250Y-21000D03*
X16250Y-21000D03*
X15250Y-21000D03*
X14250Y-21000D03*
X13250Y-21000D03*
G54D15*
X7250Y-21000D03*
G54D16*
X8250Y-21000D03*
X9250Y-21000D03*
X10250Y-21000D03*
X11250Y-21000D03*
X12250Y-21000D03*
G54D24*
X21000Y-16800D03*
X23000Y-16800D03*
G54D25*
X19000Y-16800D03*
G54D24*
X25000Y-16800D03*
G54D16*
X27250Y-20000D03*
X31250Y-20000D03*
X30250Y-20000D03*
X29250Y-20000D03*
X28250Y-20000D03*
X22250Y-20000D03*
X21250Y-20000D03*
X20250Y-20000D03*
X19250Y-20000D03*
X18250Y-20000D03*
X23250Y-20000D03*
X24250Y-20000D03*
X25250Y-20000D03*
X26250Y-20000D03*
X17250Y-20000D03*
X16250Y-20000D03*
X15250Y-20000D03*
X14250Y-20000D03*
X13250Y-20000D03*
G54D15*
X7250Y-20000D03*
G54D16*
X8250Y-20000D03*
X9250Y-20000D03*
X10250Y-20000D03*
X11250Y-20000D03*
X12250Y-20000D03*
X27250Y-31000D03*
X31250Y-31000D03*
X30250Y-31000D03*
X29250Y-31000D03*
X28250Y-31000D03*
X22250Y-31000D03*
X21250Y-31000D03*
X20250Y-31000D03*
X19250Y-31000D03*
X18250Y-31000D03*
X23250Y-31000D03*
X24250Y-31000D03*
X25250Y-31000D03*
X26250Y-31000D03*
X17250Y-31000D03*
X16250Y-31000D03*
X15250Y-31000D03*
X14250Y-31000D03*
X13250Y-31000D03*
G54D15*
X7250Y-31000D03*
G54D16*
X8250Y-31000D03*
X9250Y-31000D03*
X10250Y-31000D03*
X11250Y-31000D03*
X12250Y-31000D03*
G54D15*
X22950Y-14120D03*
G54D16*
X23950Y-14120D03*
M02*
