M48
INCH,TZ
T1C0.025
T2C0.030
T3C0.032
T4C0.039
T5C0.040
T6C0.060
T7C0.073
T8C0.100
T9C0.118
T10C0.120
%
T1
X14970Y-17960
X16650Y-18350
X19760Y-30000
X20050Y-12940
X24750Y-21485
X25775Y-22505
X26755Y-24500
X27750Y-25500
X29665Y-13440
X29880Y-15270
X30000Y-10910
X30030Y-13740
X30720Y-18880
X30740Y-12020
X30770Y-21000
X31450Y-16280
X31700Y-16840
X31780Y-26310
X32010Y-10910
X32250Y-13650
X32500Y-12400
X32650Y-19750
X32650Y-23100
X32650Y-24400
X33170Y-10960
X33170Y-13650
X33250Y-19830
X33260Y-22005
X33770Y-26980
X34100Y-29250
X34100Y-30400
X34120Y-31350
X34170Y-23430
X34200Y-13100
X34200Y-17010
X34410Y-22050
X34420Y-20470
X34505Y-25130
X34520Y-12700
X34600Y-26945
X34600Y-29250
X35100Y-31350
X35260Y-29650
X35600Y-17980
X35600Y-26500
X36780Y-14020
X36790Y-27055
X36790Y-27890
X36820Y-11990
X36970Y-30490
X37150Y-15450
X37150Y-30050
X37185Y-17645
X37500Y-16450
X37520Y-17010
X37550Y-28300
X37850Y-13950
X38200Y-25500
X38210Y-17680
X39500Y-13000
T2
X33254Y-21090
X33254Y-23090
T3
X21950Y-11600
X21950Y-12600
X22950Y-11600
X22950Y-12600
X23950Y-11600
X23950Y-12600
X24950Y-11600
X24950Y-12600
X25950Y-11600
X25950Y-12600
X36094Y-14470
X36094Y-15470
X36094Y-16470
X36094Y-17470
X36094Y-18470
X36094Y-19470
X36094Y-20470
X36094Y-21470
X36094Y-22470
X36094Y-23470
X36094Y-24470
X36094Y-25470
X36094Y-26470
X36094Y-27470
X39094Y-14470
X39094Y-15470
X39094Y-16470
X39094Y-17470
X39094Y-18470
X39094Y-19470
X39094Y-20470
X39094Y-21470
X39094Y-22470
X39094Y-23470
X39094Y-24470
X39094Y-25470
X39094Y-26470
X39094Y-27470
T4
X27054Y-13579
X27054Y-15941
X28826Y-13579
X28826Y-15941
T5
X7250Y-20000
X7250Y-21000
X7250Y-22000
X7250Y-23000
X7250Y-24000
X7250Y-25000
X7250Y-26000
X7250Y-27000
X7250Y-28000
X7250Y-29000
X7250Y-30000
X7250Y-31000
X8250Y-20000
X8250Y-21000
X8250Y-22000
X8250Y-23000
X8250Y-24000
X8250Y-25000
X8250Y-26000
X8250Y-27000
X8250Y-28000
X8250Y-29000
X8250Y-30000
X8250Y-31000
X9250Y-20000
X9250Y-21000
X9250Y-22000
X9250Y-23000
X9250Y-24000
X9250Y-25000
X9250Y-26000
X9250Y-27000
X9250Y-28000
X9250Y-29000
X9250Y-30000
X9250Y-31000
X10250Y-20000
X10250Y-21000
X10250Y-22000
X10250Y-23000
X10250Y-24000
X10250Y-25000
X10250Y-26000
X10250Y-27000
X10250Y-28000
X10250Y-29000
X10250Y-30000
X10250Y-31000
X11250Y-20000
X11250Y-21000
X11250Y-22000
X11250Y-23000
X11250Y-24000
X11250Y-25000
X11250Y-26000
X11250Y-27000
X11250Y-28000
X11250Y-29000
X11250Y-30000
X11250Y-31000
X12250Y-20000
X12250Y-21000
X12250Y-22000
X12250Y-23000
X12250Y-24000
X12250Y-25000
X12250Y-26000
X12250Y-27000
X12250Y-28000
X12250Y-29000
X12250Y-30000
X12250Y-31000
X13250Y-20000
X13250Y-21000
X13250Y-22000
X13250Y-23000
X13250Y-24000
X13250Y-25000
X13250Y-26000
X13250Y-27000
X13250Y-28000
X13250Y-29000
X13250Y-30000
X13250Y-31000
X14250Y-20000
X14250Y-21000
X14250Y-22000
X14250Y-23000
X14250Y-24000
X14250Y-25000
X14250Y-26000
X14250Y-27000
X14250Y-28000
X14250Y-29000
X14250Y-30000
X14250Y-31000
X15250Y-20000
X15250Y-21000
X15250Y-22000
X15250Y-23000
X15250Y-24000
X15250Y-25000
X15250Y-26000
X15250Y-27000
X15250Y-28000
X15250Y-29000
X15250Y-30000
X15250Y-31000
X16250Y-20000
X16250Y-21000
X16250Y-22000
X16250Y-23000
X16250Y-24000
X16250Y-25000
X16250Y-26000
X16250Y-27000
X16250Y-28000
X16250Y-29000
X16250Y-30000
X16250Y-31000
X17250Y-20000
X17250Y-21000
X17250Y-22000
X17250Y-23000
X17250Y-24000
X17250Y-25000
X17250Y-26000
X17250Y-27000
X17250Y-28000
X17250Y-29000
X17250Y-30000
X17250Y-31000
X18250Y-20000
X18250Y-21000
X18250Y-22000
X18250Y-23000
X18250Y-24000
X18250Y-25000
X18250Y-26000
X18250Y-27000
X18250Y-28000
X18250Y-29000
X18250Y-30000
X18250Y-31000
X19250Y-20000
X19250Y-21000
X19250Y-22000
X19250Y-23000
X19250Y-24000
X19250Y-25000
X19250Y-26000
X19250Y-27000
X19250Y-28000
X19250Y-29000
X19250Y-30000
X19250Y-31000
X20250Y-20000
X20250Y-21000
X20250Y-22000
X20250Y-23000
X20250Y-24000
X20250Y-25000
X20250Y-26000
X20250Y-27000
X20250Y-28000
X20250Y-29000
X20250Y-30000
X20250Y-31000
X21250Y-20000
X21250Y-21000
X21250Y-22000
X21250Y-23000
X21250Y-24000
X21250Y-25000
X21250Y-26000
X21250Y-27000
X21250Y-28000
X21250Y-29000
X21250Y-30000
X21250Y-31000
X22250Y-20000
X22250Y-21000
X22250Y-22000
X22250Y-23000
X22250Y-24000
X22250Y-25000
X22250Y-26000
X22250Y-27000
X22250Y-28000
X22250Y-29000
X22250Y-30000
X22250Y-31000
X22950Y-14120
X23250Y-20000
X23250Y-21000
X23250Y-22000
X23250Y-23000
X23250Y-24000
X23250Y-25000
X23250Y-26000
X23250Y-27000
X23250Y-28000
X23250Y-29000
X23250Y-30000
X23250Y-31000
X23950Y-14120
X24250Y-20000
X24250Y-21000
X24250Y-22000
X24250Y-23000
X24250Y-24000
X24250Y-25000
X24250Y-26000
X24250Y-27000
X24250Y-28000
X24250Y-29000
X24250Y-30000
X24250Y-31000
X25250Y-20000
X25250Y-21000
X25250Y-22000
X25250Y-23000
X25250Y-24000
X25250Y-25000
X25250Y-26000
X25250Y-27000
X25250Y-28000
X25250Y-29000
X25250Y-30000
X25250Y-31000
X26250Y-20000
X26250Y-21000
X26250Y-22000
X26250Y-23000
X26250Y-24000
X26250Y-25000
X26250Y-26000
X26250Y-27000
X26250Y-28000
X26250Y-29000
X26250Y-30000
X26250Y-31000
X27250Y-20000
X27250Y-21000
X27250Y-22000
X27250Y-23000
X27250Y-24000
X27250Y-25000
X27250Y-26000
X27250Y-27000
X27250Y-28000
X27250Y-29000
X27250Y-30000
X27250Y-31000
X28250Y-20000
X28250Y-21000
X28250Y-22000
X28250Y-23000
X28250Y-24000
X28250Y-25000
X28250Y-26000
X28250Y-27000
X28250Y-28000
X28250Y-29000
X28250Y-30000
X28250Y-31000
X29250Y-20000
X29250Y-21000
X29250Y-22000
X29250Y-23000
X29250Y-24000
X29250Y-25000
X29250Y-26000
X29250Y-27000
X29250Y-28000
X29250Y-29000
X29250Y-30000
X29250Y-31000
X30250Y-20000
X30250Y-21000
X30250Y-22000
X30250Y-23000
X30250Y-24000
X30250Y-25000
X30250Y-26000
X30250Y-27000
X30250Y-28000
X30250Y-29000
X30250Y-30000
X30250Y-31000
X31250Y-20000
X31250Y-21000
X31250Y-22000
X31250Y-23000
X31250Y-24000
X31250Y-25000
X31250Y-26000
X31250Y-27000
X31250Y-28000
X31250Y-29000
X31250Y-30000
X31250Y-31000
X32890Y-26312
X33890Y-26312
X35050Y-10892
X35094Y-12470
X35094Y-13470
X35094Y-14470
X35094Y-15470
X35094Y-16470
X35094Y-17470
X35094Y-18470
X35094Y-19470
X35094Y-20470
X35094Y-24470
X35094Y-25470
X35094Y-26470
X35094Y-27470
X36050Y-10892
X37050Y-10892
X37830Y-12180
X37896Y-29772
X37896Y-30772
X38050Y-10892
X38830Y-12180
X38896Y-29772
X38896Y-30772
X39050Y-10892
X39896Y-29772
X39896Y-30772
X40050Y-10892
X40094Y-12470
X40094Y-13470
X40094Y-14470
X40094Y-15470
X40094Y-16470
X40094Y-17470
X40094Y-18470
X40094Y-19470
X40094Y-20470
X40094Y-21470
X40094Y-22470
X40094Y-23470
X40094Y-24470
X40094Y-25470
X40094Y-26470
X40094Y-27470
T6
X19000Y-16800
X21000Y-16800
X23000Y-16800
X25000Y-16800
T7
X11670Y-14518
X11670Y-16682
X13324Y-14518
X13324Y-16682
X14976Y-14518
X14976Y-16682
X16630Y-14518
X16630Y-16682
T8
X19650Y-11900
X28250Y-11900
T9
X11670Y-11643
X16630Y-11643
T10
X8250Y-15750
X32750Y-15750
M30
