G04 (created by PCBNEW (2013-07-07 BZR 4022)-stable) date 04/02/2014 10:01:15 AM*
%MOIN*%
G04 Gerber Fmt 3.4, Leading zero omitted, Abs format*
%FSLAX34Y34*%
G01*
G70*
G90*
G04 APERTURE LIST*
%ADD10C,0.00590551*%
%ADD11C,0.175748*%
%ADD12C,0.075748*%
%ADD13R,0.075748X0.075748*%
%ADD14C,0.133858*%
%ADD15R,0.115748X0.115748*%
%ADD16C,0.135748*%
%ADD17C,0.070748*%
%ADD18R,0.070748X0.070748*%
%ADD19C,0.071748*%
%ADD20C,0.165748*%
%ADD21R,0.165748X0.165748*%
G04 APERTURE END LIST*
G54D10*
G54D11*
X47500Y-15500D03*
X9500Y-15500D03*
G54D12*
X39000Y-28500D03*
X44000Y-28500D03*
X43000Y-28500D03*
X42000Y-28500D03*
X41000Y-28500D03*
X40000Y-28500D03*
X45000Y-28500D03*
X46000Y-28500D03*
X47000Y-28500D03*
X48000Y-28500D03*
X29000Y-28500D03*
X34000Y-28500D03*
X33000Y-28500D03*
X32000Y-28500D03*
X31000Y-28500D03*
X30000Y-28500D03*
X35000Y-28500D03*
X36000Y-28500D03*
X37000Y-28500D03*
X38000Y-28500D03*
X24000Y-28500D03*
X23000Y-28500D03*
X22000Y-28500D03*
X21000Y-28500D03*
X20000Y-28500D03*
X25000Y-28500D03*
X26000Y-28500D03*
X27000Y-28500D03*
X28000Y-28500D03*
X19000Y-28500D03*
X18000Y-28500D03*
X17000Y-28500D03*
X16000Y-28500D03*
X15000Y-28500D03*
G54D13*
X9000Y-28500D03*
G54D12*
X10000Y-28500D03*
X11000Y-28500D03*
X12000Y-28500D03*
X13000Y-28500D03*
X14000Y-28500D03*
X39000Y-27500D03*
X44000Y-27500D03*
X43000Y-27500D03*
X42000Y-27500D03*
X41000Y-27500D03*
X40000Y-27500D03*
X45000Y-27500D03*
X46000Y-27500D03*
X47000Y-27500D03*
X48000Y-27500D03*
X29000Y-27500D03*
X34000Y-27500D03*
X33000Y-27500D03*
X32000Y-27500D03*
X31000Y-27500D03*
X30000Y-27500D03*
X35000Y-27500D03*
X36000Y-27500D03*
X37000Y-27500D03*
X38000Y-27500D03*
X24000Y-27500D03*
X23000Y-27500D03*
X22000Y-27500D03*
X21000Y-27500D03*
X20000Y-27500D03*
X25000Y-27500D03*
X26000Y-27500D03*
X27000Y-27500D03*
X28000Y-27500D03*
X19000Y-27500D03*
X18000Y-27500D03*
X17000Y-27500D03*
X16000Y-27500D03*
X15000Y-27500D03*
G54D13*
X9000Y-27500D03*
G54D12*
X10000Y-27500D03*
X11000Y-27500D03*
X12000Y-27500D03*
X13000Y-27500D03*
X14000Y-27500D03*
X39000Y-26500D03*
X44000Y-26500D03*
X43000Y-26500D03*
X42000Y-26500D03*
X41000Y-26500D03*
X40000Y-26500D03*
X45000Y-26500D03*
X46000Y-26500D03*
X47000Y-26500D03*
X48000Y-26500D03*
X29000Y-26500D03*
X34000Y-26500D03*
X33000Y-26500D03*
X32000Y-26500D03*
X31000Y-26500D03*
X30000Y-26500D03*
X35000Y-26500D03*
X36000Y-26500D03*
X37000Y-26500D03*
X38000Y-26500D03*
X24000Y-26500D03*
X23000Y-26500D03*
X22000Y-26500D03*
X21000Y-26500D03*
X20000Y-26500D03*
X25000Y-26500D03*
X26000Y-26500D03*
X27000Y-26500D03*
X28000Y-26500D03*
X19000Y-26500D03*
X18000Y-26500D03*
X17000Y-26500D03*
X16000Y-26500D03*
X15000Y-26500D03*
G54D13*
X9000Y-26500D03*
G54D12*
X10000Y-26500D03*
X11000Y-26500D03*
X12000Y-26500D03*
X13000Y-26500D03*
X14000Y-26500D03*
X39000Y-25500D03*
X44000Y-25500D03*
X43000Y-25500D03*
X42000Y-25500D03*
X41000Y-25500D03*
X40000Y-25500D03*
X45000Y-25500D03*
X46000Y-25500D03*
X47000Y-25500D03*
X48000Y-25500D03*
X29000Y-25500D03*
X34000Y-25500D03*
X33000Y-25500D03*
X32000Y-25500D03*
X31000Y-25500D03*
X30000Y-25500D03*
X35000Y-25500D03*
X36000Y-25500D03*
X37000Y-25500D03*
X38000Y-25500D03*
X24000Y-25500D03*
X23000Y-25500D03*
X22000Y-25500D03*
X21000Y-25500D03*
X20000Y-25500D03*
X25000Y-25500D03*
X26000Y-25500D03*
X27000Y-25500D03*
X28000Y-25500D03*
X19000Y-25500D03*
X18000Y-25500D03*
X17000Y-25500D03*
X16000Y-25500D03*
X15000Y-25500D03*
G54D13*
X9000Y-25500D03*
G54D12*
X10000Y-25500D03*
X11000Y-25500D03*
X12000Y-25500D03*
X13000Y-25500D03*
X14000Y-25500D03*
X39000Y-24500D03*
X44000Y-24500D03*
X43000Y-24500D03*
X42000Y-24500D03*
X41000Y-24500D03*
X40000Y-24500D03*
X45000Y-24500D03*
X46000Y-24500D03*
X47000Y-24500D03*
X48000Y-24500D03*
X29000Y-24500D03*
X34000Y-24500D03*
X33000Y-24500D03*
X32000Y-24500D03*
X31000Y-24500D03*
X30000Y-24500D03*
X35000Y-24500D03*
X36000Y-24500D03*
X37000Y-24500D03*
X38000Y-24500D03*
X24000Y-24500D03*
X23000Y-24500D03*
X22000Y-24500D03*
X21000Y-24500D03*
X20000Y-24500D03*
X25000Y-24500D03*
X26000Y-24500D03*
X27000Y-24500D03*
X28000Y-24500D03*
X19000Y-24500D03*
X18000Y-24500D03*
X17000Y-24500D03*
X16000Y-24500D03*
X15000Y-24500D03*
G54D13*
X9000Y-24500D03*
G54D12*
X10000Y-24500D03*
X11000Y-24500D03*
X12000Y-24500D03*
X13000Y-24500D03*
X14000Y-24500D03*
X39000Y-23500D03*
X44000Y-23500D03*
X43000Y-23500D03*
X42000Y-23500D03*
X41000Y-23500D03*
X40000Y-23500D03*
X45000Y-23500D03*
X46000Y-23500D03*
X47000Y-23500D03*
X48000Y-23500D03*
X29000Y-23500D03*
X34000Y-23500D03*
X33000Y-23500D03*
X32000Y-23500D03*
X31000Y-23500D03*
X30000Y-23500D03*
X35000Y-23500D03*
X36000Y-23500D03*
X37000Y-23500D03*
X38000Y-23500D03*
X24000Y-23500D03*
X23000Y-23500D03*
X22000Y-23500D03*
X21000Y-23500D03*
X20000Y-23500D03*
X25000Y-23500D03*
X26000Y-23500D03*
X27000Y-23500D03*
X28000Y-23500D03*
X19000Y-23500D03*
X18000Y-23500D03*
X17000Y-23500D03*
X16000Y-23500D03*
X15000Y-23500D03*
G54D13*
X9000Y-23500D03*
G54D12*
X10000Y-23500D03*
X11000Y-23500D03*
X12000Y-23500D03*
X13000Y-23500D03*
X14000Y-23500D03*
X39000Y-22500D03*
X44000Y-22500D03*
X43000Y-22500D03*
X42000Y-22500D03*
X41000Y-22500D03*
X40000Y-22500D03*
X45000Y-22500D03*
X46000Y-22500D03*
X47000Y-22500D03*
X48000Y-22500D03*
X29000Y-22500D03*
X34000Y-22500D03*
X33000Y-22500D03*
X32000Y-22500D03*
X31000Y-22500D03*
X30000Y-22500D03*
X35000Y-22500D03*
X36000Y-22500D03*
X37000Y-22500D03*
X38000Y-22500D03*
X24000Y-22500D03*
X23000Y-22500D03*
X22000Y-22500D03*
X21000Y-22500D03*
X20000Y-22500D03*
X25000Y-22500D03*
X26000Y-22500D03*
X27000Y-22500D03*
X28000Y-22500D03*
X19000Y-22500D03*
X18000Y-22500D03*
X17000Y-22500D03*
X16000Y-22500D03*
X15000Y-22500D03*
G54D13*
X9000Y-22500D03*
G54D12*
X10000Y-22500D03*
X11000Y-22500D03*
X12000Y-22500D03*
X13000Y-22500D03*
X14000Y-22500D03*
X39000Y-21500D03*
X44000Y-21500D03*
X43000Y-21500D03*
X42000Y-21500D03*
X41000Y-21500D03*
X40000Y-21500D03*
X45000Y-21500D03*
X46000Y-21500D03*
X47000Y-21500D03*
X48000Y-21500D03*
X29000Y-21500D03*
X34000Y-21500D03*
X33000Y-21500D03*
X32000Y-21500D03*
X31000Y-21500D03*
X30000Y-21500D03*
X35000Y-21500D03*
X36000Y-21500D03*
X37000Y-21500D03*
X38000Y-21500D03*
X24000Y-21500D03*
X23000Y-21500D03*
X22000Y-21500D03*
X21000Y-21500D03*
X20000Y-21500D03*
X25000Y-21500D03*
X26000Y-21500D03*
X27000Y-21500D03*
X28000Y-21500D03*
X19000Y-21500D03*
X18000Y-21500D03*
X17000Y-21500D03*
X16000Y-21500D03*
X15000Y-21500D03*
G54D13*
X9000Y-21500D03*
G54D12*
X10000Y-21500D03*
X11000Y-21500D03*
X12000Y-21500D03*
X13000Y-21500D03*
X14000Y-21500D03*
X39000Y-19500D03*
X44000Y-19500D03*
X43000Y-19500D03*
X42000Y-19500D03*
X41000Y-19500D03*
X40000Y-19500D03*
X45000Y-19500D03*
X46000Y-19500D03*
X47000Y-19500D03*
X48000Y-19500D03*
X29000Y-19500D03*
X34000Y-19500D03*
X33000Y-19500D03*
X32000Y-19500D03*
X31000Y-19500D03*
X30000Y-19500D03*
X35000Y-19500D03*
X36000Y-19500D03*
X37000Y-19500D03*
X38000Y-19500D03*
X24000Y-19500D03*
X23000Y-19500D03*
X22000Y-19500D03*
X21000Y-19500D03*
X20000Y-19500D03*
X25000Y-19500D03*
X26000Y-19500D03*
X27000Y-19500D03*
X28000Y-19500D03*
X19000Y-19500D03*
X18000Y-19500D03*
X17000Y-19500D03*
X16000Y-19500D03*
X15000Y-19500D03*
G54D13*
X9000Y-19500D03*
G54D12*
X10000Y-19500D03*
X11000Y-19500D03*
X12000Y-19500D03*
X13000Y-19500D03*
X14000Y-19500D03*
X39000Y-20500D03*
X44000Y-20500D03*
X43000Y-20500D03*
X42000Y-20500D03*
X41000Y-20500D03*
X40000Y-20500D03*
X45000Y-20500D03*
X46000Y-20500D03*
X47000Y-20500D03*
X48000Y-20500D03*
X29000Y-20500D03*
X34000Y-20500D03*
X33000Y-20500D03*
X32000Y-20500D03*
X31000Y-20500D03*
X30000Y-20500D03*
X35000Y-20500D03*
X36000Y-20500D03*
X37000Y-20500D03*
X38000Y-20500D03*
X24000Y-20500D03*
X23000Y-20500D03*
X22000Y-20500D03*
X21000Y-20500D03*
X20000Y-20500D03*
X25000Y-20500D03*
X26000Y-20500D03*
X27000Y-20500D03*
X28000Y-20500D03*
X19000Y-20500D03*
X18000Y-20500D03*
X17000Y-20500D03*
X16000Y-20500D03*
X15000Y-20500D03*
G54D13*
X9000Y-20500D03*
G54D12*
X10000Y-20500D03*
X11000Y-20500D03*
X12000Y-20500D03*
X13000Y-20500D03*
X14000Y-20500D03*
G54D14*
X16630Y-11643D03*
G54D15*
X16630Y-16682D03*
X14976Y-16682D03*
X13324Y-16682D03*
X11670Y-16682D03*
X16630Y-14518D03*
X14976Y-14518D03*
X13324Y-14518D03*
X11670Y-14518D03*
G54D14*
X11670Y-11643D03*
G54D16*
X28250Y-11900D03*
X19650Y-11900D03*
G54D13*
X21950Y-12600D03*
G54D12*
X21950Y-11600D03*
X22950Y-12600D03*
X22950Y-11600D03*
X23950Y-12600D03*
X23950Y-11600D03*
X24950Y-12600D03*
X24950Y-11600D03*
X25950Y-12600D03*
X25950Y-11600D03*
G54D17*
X30281Y-13614D03*
X30281Y-15386D03*
X27919Y-13614D03*
X27919Y-15386D03*
G54D13*
X43220Y-10980D03*
G54D12*
X44220Y-10980D03*
X45220Y-10980D03*
X46220Y-10980D03*
X47220Y-10980D03*
X48220Y-10980D03*
G54D17*
X44050Y-14500D03*
X43050Y-14500D03*
X42050Y-14500D03*
X41050Y-14500D03*
X40050Y-14500D03*
X39050Y-14500D03*
X38050Y-14500D03*
X37050Y-14500D03*
X36050Y-14500D03*
X35050Y-14500D03*
X34050Y-14500D03*
X33050Y-14500D03*
X32050Y-14500D03*
G54D18*
X45050Y-14500D03*
G54D17*
X32050Y-17500D03*
X33050Y-17500D03*
X34050Y-17500D03*
X35050Y-17500D03*
X36050Y-17500D03*
X37050Y-17500D03*
X38050Y-17500D03*
X39050Y-17500D03*
X40050Y-17500D03*
X41050Y-17500D03*
X42050Y-17500D03*
X43050Y-17500D03*
X44050Y-17500D03*
X45050Y-17500D03*
G54D19*
X36430Y-11660D03*
X38430Y-11660D03*
G54D12*
X47050Y-13500D03*
X46050Y-13500D03*
X45050Y-13500D03*
X44050Y-13500D03*
X43050Y-13500D03*
X42050Y-13500D03*
X41050Y-13500D03*
X40050Y-13500D03*
X39050Y-13500D03*
X35050Y-13500D03*
X34050Y-13500D03*
X33050Y-13500D03*
X32050Y-13500D03*
X32050Y-18500D03*
X33050Y-18500D03*
X34050Y-18500D03*
X35050Y-18500D03*
X36050Y-18500D03*
X37050Y-18500D03*
X38050Y-18500D03*
X39050Y-18500D03*
X40050Y-18500D03*
X41050Y-18500D03*
X42050Y-18500D03*
X43050Y-18500D03*
X44050Y-18500D03*
X45050Y-18500D03*
X46050Y-18500D03*
X47050Y-18500D03*
G54D13*
X33200Y-11200D03*
G54D12*
X33200Y-12200D03*
X32200Y-11200D03*
X32200Y-12200D03*
X31200Y-11200D03*
X31200Y-12200D03*
G54D20*
X21000Y-16800D03*
X23000Y-16800D03*
G54D21*
X19000Y-16800D03*
G54D20*
X25000Y-16800D03*
G54D13*
X20950Y-14125D03*
G54D12*
X21950Y-14125D03*
X22950Y-14125D03*
X23950Y-14125D03*
X24950Y-14125D03*
X25950Y-14125D03*
G54D13*
X43025Y-12375D03*
G54D12*
X44025Y-12375D03*
M02*
